<svg width="78" height="15" viewBox="0 0 78 15" fill="none" xmlns="http://www.w3.org/2000/svg">
<g clip-path="url(#clip0_1986_2435)">
<path d="M9.04479 0.71994V6.69153H5.3042V0.71994H9.04479Z" fill="white"/>
<path d="M12.6325 3.52606V7.47015H0.379395V3.52606H12.6325Z" fill="white"/>
<path d="M7.25033 6.50967C10.4127 7.84735 12.6364 10.9759 12.6364 14.6144H8.68501C8.68501 12.7004 7.56875 11.0414 5.95215 10.2512" fill="white"/>
<path d="M9.19373 5.81741H5.24233C5.24233 8.49366 3.06062 10.6714 0.379395 10.6714V14.6155C5.23883 14.6155 9.19286 10.6696 9.19286 5.81828L9.19373 5.81741Z" fill="white"/>
<path d="M68.2057 9.82834L74.7271 7.71352C74.0344 6.07982 72.1264 5.35422 70.5055 5.87988C68.9571 6.38194 67.7988 8.08199 68.2057 9.82834ZM77.0323 8.54739L68.671 11.2594C69.6438 12.763 71.3173 13.3865 72.8656 12.8845C74.0493 12.5002 74.9625 11.5318 75.2022 10.2876L77.097 9.67294C76.9772 11.9658 75.5136 13.9034 73.3459 14.6063C70.5046 15.5275 67.4061 13.8047 66.5445 11.1581C65.5262 8.02873 67.2198 5.06696 69.8974 4.19903C72.8665 3.23592 75.8592 4.75698 76.7838 7.6C76.8827 7.90387 76.9762 8.19027 77.0323 8.54739Z" fill="white"/>
<path d="M65.0548 14.6338H63.0962V0.71994H65.0548V14.6338Z" fill="white"/>
<path d="M59.9489 11.1932H62.1341C61.3049 13.5438 59.3086 14.8972 56.9912 14.8972C53.996 14.8972 51.6411 12.4907 51.6411 9.51932C51.6411 6.3794 53.9208 3.93454 56.972 3.93454C59.3453 3.93454 61.5121 5.41979 62.1341 7.67606H59.9682C59.3838 6.45362 58.4417 5.72017 57.0289 5.72017C54.9758 5.72017 53.6006 7.28051 53.6006 9.40582C53.6006 11.531 55.0133 13.1098 56.9912 13.1098C58.3288 13.1098 59.4022 12.3955 59.9489 11.1923V11.1932Z" fill="white"/>
<path d="M48.5152 14.6343H46.5557V4.21744H48.3831V5.08799C48.3831 5.10284 48.3944 5.11419 48.4093 5.11419C48.4163 5.11419 48.4233 5.11156 48.4285 5.10546C49.291 4.193 50.4196 3.93454 51.8193 3.93454V5.94631C49.934 5.94631 48.5143 6.2362 48.5143 8.78587V14.6335L48.5152 14.6343Z" fill="white"/>
<path d="M36.7797 9.84079L43.1936 7.76094C42.5034 6.12636 40.62 5.39291 39.0261 5.90983C37.5032 6.40404 36.3695 8.09536 36.7797 9.84079ZM45.4689 8.60444L37.2459 11.2711C38.2117 12.7764 39.8624 13.4078 41.3855 12.9135C42.5497 12.5354 43.4447 11.5731 43.6748 10.3324L45.5381 9.72824C45.4314 12.0167 43.9984 13.9438 41.8665 14.6353C39.0717 15.5417 36.0108 13.8058 35.1499 11.1592C34.1308 8.02987 35.7859 5.08118 38.42 4.22723C41.3399 3.27985 44.295 4.81313 45.2205 7.65616C45.3193 7.96002 45.413 8.24641 45.4698 8.60357L45.4689 8.60444Z" fill="white"/>
<path d="M18.797 14.6527H16.7832L20.1231 5.8355C20.5396 4.6253 21.228 3.8735 22.6671 3.8735C24.267 3.8735 25.0657 4.79992 25.0657 6.17865V12.4393C25.0657 12.7999 25.2905 13.034 25.608 13.034C25.8967 13.034 26.1207 12.8619 26.2143 12.5938L28.8369 5.83288C29.2533 4.62616 29.9383 3.87088 31.3781 3.87088C32.9781 3.87088 33.7768 4.7973 33.7768 6.17604V14.6475H31.8742V6.27208C31.8742 5.89488 31.6493 5.65999 31.3292 5.65999C31.058 5.65999 30.834 5.8486 30.7377 6.11492L28.1152 12.8759C27.6988 14.0825 26.9964 14.8378 25.5564 14.8378C23.974 14.8378 23.1752 13.9114 23.1752 12.5152V6.27208C23.1752 5.89488 22.9365 5.65999 22.6154 5.65999C22.3267 5.65999 22.1343 5.8486 22.024 6.11492L18.7952 14.6492L18.7979 14.6518L18.797 14.6527Z" fill="white"/>
</g>
<defs>
<clipPath id="clip0_1986_2435">
<rect width="77.3318" height="14.1775" fill="white" transform="translate(0.379395 0.719604)"/>
</clipPath>
</defs>
</svg>
